<svg height="512" viewBox="0 0 512 512" width="512" xmlns="http://www.w3.org/2000/svg"><g id="Filled_outline" data-name="Filled outline"><path d="m488 88v336h-432a32 32 0 0 1 -32-32v-304z" fill="#d6d6d4"/><path d="m56 360a32 32 0 0 0 -32 32v-336a32 32 0 0 1 32-32z" fill="#ebebe9"/><path d="m488 88v336h-423.7l390.03-336z" fill="#c7c7c5"/><g fill="#b0b0ae"><path d="m112 112a32 32 0 1 0 32 32 32.036 32.036 0 0 0 -32-32zm0 48a16 16 0 1 1 16-16 16.019 16.019 0 0 1 -16 16z"/><path d="m112 288a32 32 0 1 0 32 32 32.036 32.036 0 0 0 -32-32zm0 48a16 16 0 1 1 16-16 16.019 16.019 0 0 1 -16 16z"/><path d="m93.657 261.657 18.343-18.344 18.343 18.344 11.314-11.314-18.344-18.343 18.344-18.343-11.314-11.314-18.343 18.344-18.343-18.344-11.314 11.314 18.344 18.343-18.344 18.343z"/><path d="m197.264 175.5a61.888 61.888 0 0 0 -4.822-4.085l11.037-2.138-3.043-15.708-33.957 6.578a8 8 0 0 0 -6.24 9.794l8 32 15.522-3.88-4.009-16.037a47.534 47.534 0 0 1 6.555 5.135c12.583 11.824 16.641 29.059 12.062 51.224l15.669 3.237c7.201-34.855-5.147-55.196-16.774-66.12z"/><path d="m432 168a32 32 0 1 0 32 32 32.036 32.036 0 0 0 -32-32zm0 48a16 16 0 1 1 16-16 16.019 16.019 0 0 1 -16 16z"/></g><rect fill="#fec9a3" height="184" rx="72" width="144" x="240" y="32"/><path d="m360 256.001v-48h-96v48l48 183.999z" fill="#fec9a3"/><path d="m331.6 256a43.041 43.041 0 0 0 28.4-10.716v-61.284h-48-48v61.284a43.038 43.038 0 0 0 28.4 10.716z" fill="#feb784"/><path d="m457.7 280.425-65.7-16.425-32-8-48 16-48-16-32 8-65.7 16.425a40 40 0 0 0 -30.3 38.806v144.769h352v-144.769a40 40 0 0 0 -30.3-38.806z" fill="#374559"/><path d="m264 256 48 184 48-184.003-48 16.003z" fill="#bfbfbd"/><path d="m328 378.666v-93.866l-16-12.8-16 12.8v93.867l16 61.333z" fill="#95573a"/><path d="m248 328-8 32 72 80-48-184-32 8-24 56z" fill="#4c5d72"/><path d="m376 328 8 32-72 80 48-184 32 8 24 56z" fill="#4c5d72"/><path d="m200 352h16v96h-16z" fill="#22303d"/><path d="m408 352h16v96h-16z" fill="#22303d"/><path d="m440 368h48v72l-40-.003-48.161 6.88-7.839-54.877z" fill="#fec9a3"/><path d="m399.84 446.88-34.86 6.99-9.93-59.56 36.95-2.31z" fill="#e0e0de"/><path d="m364.98 453.87-156.98 34.13h-48a24.006 24.006 0 0 1 -24-24v-56l219.05-13.69z" fill="#374559"/><path d="m384 103.995h8a24 24 0 0 1 24 24 24 24 0 0 1 -24 24h-8a0 0 0 0 1 0 0v-48a0 0 0 0 1 0 0z" fill="#feb784"/><path d="m240 104h-8a24.071 24.071 0 0 0 -24 24 24.071 24.071 0 0 0 24 24h8z" fill="#feb784"/><circle cx="276" cy="115.998" fill="#7a432a" r="12"/><circle cx="348" cy="115.998" fill="#7a432a" r="12"/><path d="m328 160h-32a8 8 0 0 1 -7.589-10.53l16-48 15.178 5.059-12.489 37.471h20.9z" fill="#f7a468"/><path d="m378.65 64h-27.03a197.268 197.268 0 0 0 29 51.81c1.1 1.42 2.23 2.81 3.38 4.19v-32a55.357 55.357 0 0 0 -5.35-24z" fill="#7a432a"/><path d="m240 120v-55.015a25.753 25.753 0 0 1 32-24.985v24s-14.463 34.956-32 56z" fill="#7a432a"/><path d="m331.6 240h-39.2a43.073 43.073 0 0 1 -39.59-26.106 158.47 158.47 0 0 1 -12.81-62.422v-47.472l13.821 43.643a20.093 20.093 0 0 0 29.117 7.732 20.1 20.1 0 0 1 11.145-3.375h35.833a20.1 20.1 0 0 1 11.146 3.375l1.4.937a20.093 20.093 0 0 0 28.374-6.381l13.164-45.931v47.474a158.476 158.476 0 0 1 -12.812 62.423 43.075 43.075 0 0 1 -39.588 26.103z" fill="#7a432a"/><path d="m302.891 192h-14.891v-16h14.891c10.951 0 21.549-2.519 29.078-6.911l8.062 13.821c-10.049 5.86-23.239 9.09-37.14 9.09z" fill="#fec9a3"/><path d="m384 64h-112v-24a54.641 54.641 0 0 1 38.63-16h33.37a39.989 39.989 0 0 1 28.28 11.72c.57.57 1.12 1.15 1.65 1.76a39.8 39.8 0 0 1 10.07 26.52z" fill="#7a432a"/><path d="m338.82 24-33.18 40h-20.78l33.17-40z" fill="#8c5137"/><path d="m373.93 37.48-26.16 26.52h-22.48l35.72-36.2a39.848 39.848 0 0 1 11.27 7.92c.57.57 1.12 1.15 1.65 1.76z" fill="#8c5137"/><path d="m360 255.997-48 16.003 36.258 29.007z" fill="#e0e0de"/><path d="m312 272-48-16 11.741 45.007z" fill="#e0e0de"/><path d="m184 368h-48v72l40-.003 48.161 6.88 7.839-54.877z" fill="#fec9a3"/><path d="m488 408v56a24.006 24.006 0 0 1 -24 24h-48l-151.36-32.91 4.34-60.78z" fill="#3d4d63"/><path d="m296 432h16v16h-16z" fill="#22303d"/><path d="m328 432h16v16h-16z" fill="#22303d"/><path d="m264.64 455.09-40.48-8.21 7.84-54.88 36.98 2.31z" fill="#e0e0de"/><path d="m488 80h-96.508a64.152 64.152 0 0 0 -2.074-10.126 7.97 7.97 0 0 0 2.582-5.874 48.055 48.055 0 0 0 -48-48h-33.373a62.149 62.149 0 0 0 -41.158 15.443 33.747 33.747 0 0 0 -37.469 33.537v15.02h-168v-56a8 8 0 0 0 -8-8 40.045 40.045 0 0 0 -40 40v336a40.045 40.045 0 0 0 40 40h72v32a32.036 32.036 0 0 0 32 32l51.416-.556 84.339-18.331 119 18.789c.413.065 49.248.1 49.248.1a32.036 32.036 0 0 0 32-32v-376.002a8 8 0 0 0 -8.003-8zm-8 203.443a47.923 47.923 0 0 0 -20.358-10.779l-91.642-22.91v-17a51.06 51.06 0 0 0 10.541-15.713 165.42 165.42 0 0 0 13.244-57.041h.215a32 32 0 0 0 .192-64h87.808zm-93.79-12.643 18.553 43.29-30.332 6.066a8 8 0 0 0 -6.192 9.785l6.968 27.872-25.966 28.847-15.3.957 31.8-121.934 10.234 2.558zm55.679 105.2h38.111v23.484l-75.625-4.727zm-184.523 69.328-23.666-5.145c-.162-.035-.324-.066-.488-.091l5.664-39.648 21.724 1.356zm-113.366-37.328v-32h38.111l41.154 20.577-5.893 41.249-40.241-5.748a7.935 7.935 0 0 0 -1.131-.078h-32zm88-264a16 16 0 0 1 0-32zm45.249-72h68.936a204.555 204.555 0 0 0 25.632 45.476l-8.34 29.11a12.093 12.093 0 0 1 -16.573 3.066l-1.4-.936a28 28 0 0 0 -15.588-4.716h-22.816l12.489-37.471-15.178-5.059-14.271 42.81a27.988 27.988 0 0 0 -11.64 4.436 12.1 12.1 0 0 1 -17.266-4.165l-8.772-27.7c11.458-16.216 20.761-35.831 24.787-44.851zm96.06 0a48.462 48.462 0 0 1 2.691 16v7.274a191.159 191.159 0 0 1 -12.387-23.274zm18.691 48v-8a16 16 0 0 1 0 32zm-127.418 45.806a28.1 28.1 0 0 0 22.794-3.778 12.055 12.055 0 0 1 6.707-2.03h35.833a12.058 12.058 0 0 1 6.708 2.03l1.4.937a28.1 28.1 0 0 0 37.882-6.28 149.518 149.518 0 0 1 -12.077 54.058 35.033 35.033 0 0 1 -32.229 21.257h-39.2a35.033 35.033 0 0 1 -32.237-21.258 149.6 149.6 0 0 1 -12.15-57.127 28.111 28.111 0 0 0 16.569 12.191zm20.212 138.2 3.206-2.561v14.855zm-4.423-16.952-4.9-18.8 20.051 6.683-4.522 3.616zm58.838 16.954-3.209 12.307v-14.87zm4.42-16.953-10.629-8.5-4.516-3.612 20.052-6.686zm-39.629 90.567v-88.977l8-6.4 8 6.4v89l-2.872 11.016h-10.247zm-11.6-129.622h39.2a51.044 51.044 0 0 0 20.4-4.247v6.478l-40 13.336-40-13.333v-6.481a51.039 51.039 0 0 0 20.4 4.247zm-34.143 17.684 2.11 8.088 7.633 29.255.006.016 20.238 77.567c.007.027.009.055.016.082l1.808 6.922-15.311-.957-25.964-28.845 6.968-27.872a8 8 0 0 0 -6.192-9.785l-30.332-6.066 18.552-43.289zm-57.337 58.041a8 8 0 0 0 5.511 4.12l31.769 6.355-5.965 23.861a8 8 0 0 0 1.815 7.292l17.893 19.879-17.824-1.114-18.119-9.062v-23.056h-16v15.056l-12.422-6.211a7.994 7.994 0 0 0 -3.578-.845h-40v-40.769a31.952 31.952 0 0 1 24.239-31.044l50.054-12.512-17.646 41.174a8 8 0 0 0 .273 6.876zm154.393-267.725 12.9-12.9a31.948 31.948 0 0 1 6.775 12.9zm-.508-22.119-22.118 22.119h-20.042l19.2-24h12.155a31.853 31.853 0 0 1 10.805 1.881zm-43.45-1.881-19.2 24h-12.155v-12.534a46.283 46.283 0 0 1 30.627-11.466zm-63.355 32.98a17.781 17.781 0 0 1 16-17.672v15.061a314.565 314.565 0 0 1 -16 31.775zm-216-8.98a24.042 24.042 0 0 1 16-22.629v319.429a39.845 39.845 0 0 0 -16 7.215zm24 360a24 24 0 0 1 0-48 8 8 0 0 0 8-8v-264h167.808a32 32 0 0 0 .192 64h.22a165.4 165.4 0 0 0 13.244 57.049 51.059 51.059 0 0 0 10.536 15.709v17l-25.94 6.485-.034.01-65.668 16.415a47.922 47.922 0 0 0 -30.658 23.844 32 32 0 1 0 -5.7 51.188v68.3zm72-96a16 16 0 1 1 -16-16 16.019 16.019 0 0 1 16 16zm32 160a16.019 16.019 0 0 1 -16-16v-16h31.432l47.539 6.791c.019 0 .038.009.058.011l7.554 1.08 25.585 5.562-.146 1.966a7.981 7.981 0 0 0 1.727 5.584l-50.609 11.006zm256.627 0-144.1-22.753 4.049-54.445 203.424 12.714v48.484a16.019 16.019 0 0 1 -16 16zm63.373-120h-40a7.994 7.994 0 0 0 -3.578.845l-12.422 6.211v-15.056h-16v23.056l-18.122 9.061-17.823 1.112 17.891-19.877a8 8 0 0 0 1.815-7.292l-5.961-23.86 31.773-6.354a8 8 0 0 0 5.784-11l-17.647-41.176 50.055 12.514a31.952 31.952 0 0 1 24.235 31.047z"/><path d="m112 176a32 32 0 1 0 -32-32 32.036 32.036 0 0 0 32 32zm0-48a16 16 0 1 1 -16 16 16.019 16.019 0 0 1 16-16z"/><path d="m130.343 202.343-18.343 18.344-18.343-18.344-11.314 11.314 18.344 18.343-18.344 18.343 11.314 11.314 18.343-18.344 18.343 18.344 11.314-11.314-18.344-18.343 18.344-18.343z"/><path d="m168.239 201.94 15.522-3.88-4.009-16.037a47.534 47.534 0 0 1 6.555 5.135c12.583 11.824 16.641 29.059 12.062 51.224l15.669 3.237c7.2-34.854-5.147-55.195-16.774-66.12a61.888 61.888 0 0 0 -4.822-4.085l11.037-2.138-3.043-15.708-33.957 6.578a8 8 0 0 0 -6.24 9.794z"/><path d="m302.89 192c13.9 0 27.091-3.228 37.14-9.09l-8.062-13.821c-7.528 4.39-18.126 6.911-29.077 6.911h-14.891v16z"/><path d="m276 128a12 12 0 1 0 -12-12 12.014 12.014 0 0 0 12 12z"/><path d="m348 128a12 12 0 1 0 -12-12 12.014 12.014 0 0 0 12 12z"/><path d="m296 432h16v16h-16z"/><path d="m328 432h16v16h-16z"/><path d="m400 200a32 32 0 1 0 32-32 32.036 32.036 0 0 0 -32 32zm32-16a16 16 0 1 1 -16 16 16.019 16.019 0 0 1 16-16z"/></g></svg>